<svg id="Artwork" xmlns="http://www.w3.org/2000/svg" viewBox="0 0 662.55 291.38"><defs><style>.cls-1{fill:#fff;}.cls-2{fill:#231f20;}.cls-3{fill:#ed1c24;}</style></defs><title>Computer Science_2 Color Process HZ_Reverse Text</title><path class="cls-1" d="M405,150.21l1.32,2.17c1.54,2.55,3.93,12.15,7,15.33a34,34,0,0,1,6.1-3.13,66.66,66.66,0,0,0-4-6.09c-3.7-4.91-6.35-7.53-6.65-8A13.61,13.61,0,0,1,405,150.21Z" transform="translate(-346.09 -111.59)"/><path class="cls-1" d="M432.71,163c0.73-5-.94-13.37-1.93-15.46a20.05,20.05,0,0,1-3.61-1.27,49.79,49.79,0,0,0-1.4,9.06c-0.17,2.69-.1,6.77.4,7.67A38.19,38.19,0,0,1,432.71,163Z" transform="translate(-346.09 -111.59)"/><path class="cls-1" d="M456.64,192.6a26.69,26.69,0,0,0-27-27,27,27,0,0,0-27,27,28.24,28.24,0,0,0,.39,3.62c7.76-1.8,18-1.51,22.62,2.11a27.08,27.08,0,0,1,25.87.06,27.72,27.72,0,0,1,4.8-1.8A32.11,32.11,0,0,0,456.64,192.6Zm-32.88-9.2a3.14,3.14,0,1,1-6.27-.31l0-.35c-0.27-.41-1.68-0.87-3.77.4-1.05.65-2.23,0.2-.4-1.38a10.83,10.83,0,0,1,5.41-2.87h0.05a21.53,21.53,0,0,1,8,1c0.69,0.28,0,3.67-.18,3.63a6.42,6.42,0,0,0-2.83-.41v0.25Zm9,9.4c-0.55,1.6-6.22,2.11-7.26,0-0.41-.83-1-3-0.21-2.52,1.26,0.73,5.82.21,6.68,0s0.26-1.26.74-1.13S433.26,191.29,432.76,192.81Zm13.34-8.87c-1.42-1.17-3.29-1.69-4-1.17l0,0.24a3.14,3.14,0,1,1-6.25.55v-0.13c-1.13-.36-2.93.27-3.17,0.17s-0.91-3.26.09-3.67c2.71-1.1,11.43-1.64,14,3.25C447,183.77,446.85,184.56,446.09,183.94Z" transform="translate(-346.09 -111.59)"/><path class="cls-1" d="M447.73,149.91c-3.17,2.69-8,9.19-8.64,14.4a52.49,52.49,0,0,1,6,2.92c3.9-3.85,3.11-8.08,4.63-11.36,0.66-1.41,1.3-2.53,1.67-3.17A13.61,13.61,0,0,1,447.73,149.91Z" transform="translate(-346.09 -111.59)"/><path class="cls-1" d="M466.65,160.22c-0.7.39-2.35,1.39-2.9,1.81-3.75,2.82-11.86,6.61-13.73,8.69a22.63,22.63,0,0,1,4.69,5.68c0.91,0,3.53-2.09,8.73-8.21,1.67-2,3.44-3,6.65-4.77A18.68,18.68,0,0,1,466.65,160.22Z" transform="translate(-346.09 -111.59)"/><path class="cls-1" d="M401.25,182.79c-1.75-1.73-5.24-3.23-9.78-2.86a84.88,84.88,0,0,1-18.92-.36c-6-.86-9.75,0-12.75,0-9.14,0,.25.82,1.33,1.24,4.3,1.7,13,3.85,19.8,3.35,3.33-.23,8.91,1.8,9.87,2.13,2.45,0.88,6.89,2.3,9.29,2.26A41,41,0,0,1,401.25,182.79Z" transform="translate(-346.09 -111.59)"/><path class="cls-1" d="M408.73,171.38c-4.67-3.77-9-4.57-15.82-7.79a48.62,48.62,0,0,1-4.29-2.56c-0.19-.13-0.53-0.35-0.95-0.6a14.83,14.83,0,0,1-2,4c1.06,1.38,8.72,10.12,18.52,12.84A35.38,35.38,0,0,1,408.73,171.38Z" transform="translate(-346.09 -111.59)"/><path class="cls-1" d="M506.92,178.14a26.41,26.41,0,0,0-3.32-.3c-1.47,0-11.16.05-13.8,0.46-5.42.85-15.9,0.41-21.65,0.19a25.68,25.68,0,0,0-10.75,2.32,26.88,26.88,0,0,1,1.76,6.95c1.83,0.32,3.58-2,8.8-1.9,5.43,0.09,18.79-.64,25.56-3.27A75.24,75.24,0,0,1,506.24,179C507.39,178.71,509.21,178.49,506.92,178.14Z" transform="translate(-346.09 -111.59)"/><path class="cls-1" d="M385.87,151.11a1.62,1.62,0,0,1,1.58-.15c4.58,1.48,11.15.47,14.21-4.38a1.64,1.64,0,0,1,2-.62c3.17,1.28,9.65,1.88,17.55-6.14a1.65,1.65,0,0,1,2.21,0c6.94,5.57,14.17,5.92,21.5,1a1.83,1.83,0,0,1,1.54-.49,1.65,1.65,0,0,1,1,1.18c2.34,10.83,13.65,9.87,17.05,9.32a1.67,1.67,0,0,1,1.24.3,1.65,1.65,0,0,1,.65,1.1c0.37,2.53,3.18,7.45,8,10,4.16,2.14,8.68,2,13.46-.49a1.65,1.65,0,0,1,1.53,0c6.14,3.28,11.66,3.47,15.15.53a7.88,7.88,0,0,0,2.48-8.4c-1.09-3.29-4.36-5.34-9-5.62a1.65,1.65,0,0,1-1.53-1.39,8.71,8.71,0,0,0-4.25-6.22c-3.61-2.2-8.91-2.46-14.2-.69a1.65,1.65,0,0,1-2.16-1.34,8.59,8.59,0,0,0-3.71-6.33c-2.68-1.64-6.73-1.6-11.71.12a1.65,1.65,0,0,1-2-.8c-3.2-6.14-7.7-10.12-13-11.53a18.29,18.29,0,0,0-14.49,2.52,1.66,1.66,0,0,1-1.89-.07,16.42,16.42,0,0,0-14.72-2.95c-4.74,1.45-8.36,5.15-10.18,10.43a1.65,1.65,0,0,1-2.18,1c-7.27-2.92-13.2-2.84-17.16.22-3.4,2.63-4.45,6.77-4.3,8a1.61,1.61,0,0,1-1.21,1.81l-1.74.42c-4,.92-8.2,1.87-9.45,8.28a1.65,1.65,0,0,1-1.46,1.33c-7,.7-11.58,3.29-12.55,7.12a7.1,7.1,0,0,0,3,7.42c2.49,1.69,5.49,1.51,8.24-.48a1.65,1.65,0,0,1,1.56-.21c4.11,1.57,10.78,1.26,14.83-2,2.93-2.35,4.08-5.82,3.42-10.31A1.64,1.64,0,0,1,385.87,151.11Zm111,0.46c4.16-1,9.15,2.08,7.73,7.66-0.24,1-2.59,1-2.51,0,0.36-4.68-2-5.05-5-5C495.86,154.27,495.95,151.76,496.83,151.57ZM479,143.27c4-2.31,12.31-1.9,14.88,5.48,0.44,1.25-1.22,3.38-2.26,1.49-3.11-5.71-8.13-5.7-12.32-4.1C478.39,146.51,477.55,144.12,479,143.27Zm-17.37-8.5c3.75-1.33,10.14-1.92,11.84,4.35,0.49,1.75-1.66,2.59-2.14,1.36-1.74-4.54-5-4.36-8.93-3.11C460.63,138,461.07,135,461.66,134.77ZM431,127.71c2.7-4.4,16.84-8.49,24.09,3.95,0.77,1.35-.26,2.14-1.07,2.7-0.57.41-.92-0.52-1.3-1.13-6.15-9.74-17.29-7.17-20.28-2.65C431.85,131.49,430.23,129,431,127.71Zm-22.78.71c2.48-3.93,11-10,18.55-3.32,0.85,0.74-.16,3.48-1.11,2.84-6.9-4.75-12.34-.94-15.21,2.5C409.09,132.07,407.65,129.37,408.24,128.42Zm-40.76,27.52c-2.89,0-5.21.06-7.24,2.27s-1.65,3.65-2,4.07c-0.59.58-2.08-.45-2.06-1.61,0.13-5.54,6.82-7.7,10.78-7.26C368.43,153.59,368.82,155.93,367.48,155.93Zm11.75-9.3c-4.23.46-5.46,2.53-6.21,4.89-0.31.89-2.68,0.25-2.3-1.5,1.12-5.21,6.77-6.48,8.82-6C380.22,144.13,380,146.56,379.23,146.64Zm3.61-5.61c0.87-4.6,5.36-11.29,15.62-8.68,1.26,0.32.52,3.52-.84,3-7.49-2.94-11.25,2.75-12.47,7.23C385,143.16,382.49,142.93,382.84,141Z" transform="translate(-346.09 -111.59)"/><path class="cls-1" d="M362,197.48c-5-.11-9.11,1.3-10.56,3.85a7.36,7.36,0,0,0,2.36,9.88c4.32,2.6,8.44.9,8.74-.7-1.18-1.33-3.22-4.34-4.36-4.36-1.66,0-1.52-2.2-.32-2.59,2.89-1,5.69,4.52,9.84,7.48,3.69,2.64,8.87.71,8.87-.38C374.34,208.62,371.64,197.7,362,197.48Z" transform="translate(-346.09 -111.59)"/><path class="cls-1" d="M460.87,210.4c3.44,3.48,8.12,2,8.34.85-0.38-.69-2.55-3.89-3.83-4.58-1-.57-1.72-1.53-1.15-2.32,0.94-1.32,2.81-.38,4,1.06s4.51,5.78,5.67,6.44c3,1.67,9.65,1.07,9.11-.87-1.84-2.91-3.11-8.78-8.58-11.35-5.68-2.68-13-2-19.71.42C456,202.46,459.11,208.63,460.87,210.4Z" transform="translate(-346.09 -111.59)"/><path class="cls-1" d="M421,199.43c-5.69-2.68-13.72-1.79-20.47.61,1.87,2.49,5,8.32,6.58,10.28,3.1,3.78,8.42,1.87,8.63.73-0.37-.7-3.22-4.38-4.3-5s-1.58-1.49-1-2.28c0.94-1.32,3.16,0,4.36,1.45s4.57,5.68,5.68,6.43c3.32,2.25,9.65,1.08,9.12-.85C427.39,207.91,426.44,202,421,199.43Z" transform="translate(-346.09 -111.59)"/><path class="cls-1" d="M378.36,242.94c-4,.12-8,1.71-10.31,1.31V271.3s1.46,1.11,5.52,0c5.25-1.49,7.58.15,7.58,0.15V244.11S380.53,242.87,378.36,242.94Z" transform="translate(-346.09 -111.59)"/><path class="cls-1" d="M392.85,356.07c4.05,1.16,5.52,0,5.52,0V329.06c-2.32.4-6.27-1.19-10.32-1.32-2.17-.07-2.79,1.17-2.79,1.17v27.29S387.6,354.57,392.85,356.07Z" transform="translate(-346.09 -111.59)"/><path class="cls-1" d="M480.93,242.94c-2.17-.07-2.79,1.17-2.79,1.17v27.29s2.33-1.64,7.59-.15c4.05,1.15,5.52,0,5.52,0V244.25C488.93,244.65,485,243.06,480.93,242.94Z" transform="translate(-346.09 -111.59)"/><path class="cls-1" d="M388,242.94c-2.17-.07-2.79,1.17-2.79,1.17v27.29s2.34-1.64,7.59-.15c4.05,1.15,5.52,0,5.52,0V244.25C396,244.65,392.09,243.06,388,242.94Z" transform="translate(-346.09 -111.59)"/><path class="cls-1" d="M381.15,356.21V328.92s-0.62-1.24-2.79-1.17c-4,.13-8,1.72-10.31,1.32v27.05s1.46,1.12,5.51,0C378.81,354.57,381.15,356.21,381.15,356.21Z" transform="translate(-346.09 -111.59)"/><path class="cls-1" d="M478.65,328.92v27.29s2.33-1.63,7.58-.13c4.05,1.16,5.51,0,5.51,0V329.06c-2.32.4-6.27-1.19-10.31-1.32C479.26,327.67,478.65,328.92,478.65,328.92Z" transform="translate(-346.09 -111.59)"/><path class="cls-1" d="M471.25,242.94c-4,.12-8,1.71-10.32,1.31V271.3s1.47,1.11,5.52,0c5.23-1.49,7.57.15,7.57,0.15V244.11S473.42,242.87,471.25,242.94Z" transform="translate(-346.09 -111.59)"/><path class="cls-1" d="M461.44,329.06v27.05s1.46,1.12,5.51,0c5.25-1.5,7.59.13,7.59,0.13V328.92s-0.62-1.24-2.79-1.17C467.71,327.87,463.76,329.46,461.44,329.06Z" transform="translate(-346.09 -111.59)"/><path class="cls-1" d="M508.71,230.92H443.83v58.83h64.88V230.92ZM499,277.75H480.45v2.33h-7.71v-2.33H454.15V246.33h4v-5.72c4,1,10.61-1.25,13.55-1.24a8,8,0,0,1,4.94,1.42,8,8,0,0,1,4.93-1.42c2.94,0,9.51,2.2,13.55,1.24v5.72h4v31.41Z" transform="translate(-346.09 -111.59)"/><path class="cls-1" d="M415.53,230.92H350.6v58.83h64.93V230.92Zm-9.88,46.82H387.06v2.33h-7.71v-2.33h-18.6V246.33h4v-5.72c4,1,10.61-1.25,13.55-1.24a8,8,0,0,1,4.94,1.42,8,8,0,0,1,4.93-1.42c2.94,0,9.51,2.2,13.54,1.24v5.72h4v31.41Z" transform="translate(-346.09 -111.59)"/><path class="cls-1" d="M443.83,394.95c16.36-4.73,32.56-11.06,43.54-21.1a61.43,61.43,0,0,0,9.81-11.3H480.45v2.34h-7.7v-2.34h-18.6V331.13h4v-5.72c4,1,10.6-1.24,13.54-1.24a7.93,7.93,0,0,1,4.93,1.43,8,8,0,0,1,4.93-1.43c2.94,0,9.52,2.2,13.55,1.24v5.72h4v28.42c6-10.33,8.81-23,9.78-40.76l-0.11-2.65H443.83v78.81Z" transform="translate(-346.09 -111.59)"/><path class="cls-1" d="M360.76,359.23v-28.1h4v-5.72c4,1,10.6-1.24,13.54-1.24a8,8,0,0,1,4.94,1.43,8,8,0,0,1,4.93-1.43c2.94,0,9.51,2.2,13.54,1.24v5.72h4v31.42h-18.6v2.34h-7.7v-2.34H362.79a62.26,62.26,0,0,0,9.46,11.18c10.34,9.69,26.56,16.27,43.27,21.16V316.13H350.6l0.14,2.49C351.39,334.89,354.44,348.15,360.76,359.23Z" transform="translate(-346.09 -111.59)"/><path class="cls-2" d="M515.93,176.45c-1-.72-11.32-2-12.93-2s-10.51.08-14,.6a96.33,96.33,0,0,1-21.46,0,18.71,18.71,0,0,0-7.58,1.06,19.76,19.76,0,0,0,1.5-1.41c2.05-2.11,4.35-6.12,8.42-8.11,1-.51,2-1,2.93-1.55,3.42,1.71,8.81,2.87,15.52-.28,10,5,16,1.62,18.08-.16a11.34,11.34,0,0,0,4-8.62,10.58,10.58,0,0,0-.54-3.35c-1.44-4.35-5.4-7.06-10.85-7.69a13.35,13.35,0,0,0-1.4-3.25c0.63-.81,1.23-1.57,1.62-2s2.12-3.32-2.28-1l-1.19.65a11.3,11.3,0,0,0-2.07-1.64c-4.1-2.5-9.65-2.81-15.36-1.28a11.33,11.33,0,0,0-4.7-7.08c-2.51-1.54-5.68-2-9.41-1.41,0.23-.55.45-1,0.62-1.41,1.66-3.48.76-4.35-1-2.81-2,1.74-3.21,3-4.15,4-3.53-5.67-8.18-9.49-13.67-10.95a21.1,21.1,0,0,0-14.56,1.65,35.8,35.8,0,0,0-.92-5.36c-0.87-2.82-1.9-.6-2.06.26l-0.77,4.67a19,19,0,0,0-14.61-1.69c-5.3,1.62-9.33,5.57-11.66,11a32.22,32.22,0,0,0-5.3-1.39,32.3,32.3,0,0,0-4.42-4.65c-1.35-1.2-2.47-.58-1.66,1.79,0.32,0.92.59,1.73,0.85,2.49a14.86,14.86,0,0,0-8.39,2.88,14.58,14.58,0,0,0-5.46,9.47l-0.5.12c-3.08.71-7.23,1.86-9.84,6l-0.94-.58c-7.76-5.15-4.18,1.48-1.18,4.4-10.32,1.46-13.23,6.42-14,9.36a9.28,9.28,0,0,0-.28,2.28,10.67,10.67,0,0,0,4.68,8.69c3.45,2.33,7.63,2.19,11.35-.19,4.86,1.57,11.72,1.31,16.65-2.27,2.84,3.06,5.13,5.23,6.38,6.47a31.85,31.85,0,0,0,10,6.3,20.94,20.94,0,0,0-9.94-1.31c-8.25,1.15-13.72-.34-17.26-0.7-5.82-.58-11.8.42-14.78,0.42-3.16,0-7.61,1.48-9.79,1.8-2.35.35-2.2,1.9,1.07,2.77s9.3,1.41,10.94,2.12c5.27,2.29,14.08,4.2,20.29,3.7,4.41-.34,8.84,1.81,10,2.15,2.19,0.67,7.6,2.15,9.83,2.11a45.84,45.84,0,0,0,.23,4.67,23.4,23.4,0,0,0-2.38.91c-2.47-1.5-13.29-5.89-26.47-.42-2.79-1-8.68-4.22-16.76-1.56-10,3.29-8.36,12.42-5.07,16.61,4.45,5.66,12.68,4.51,15.08,1.67,5.36,3.56,10.82,2.35,14.79-.11,2.61,1.53,15.43,4.08,25.18.11,1.33,1,6.69,3.79,13.56.32,4,2.35,10.53,2.54,13.89-.43,1.22,1,4.88,2.52,12.68,2.43,9.37-.11,11.54-1.51,12.85-2.65,2,0.94,7.27,3.68,13.78.91,3.51,2.21,10.53,2.08,14.3-.39,6.88,3.13,19.51,1.71,22.67-.46,5.65-3.92,2.92-11.91-3.3-15.7-12.23-6.17-23.62-1.38-26.65.17-3.6-2.43-11.14-4-19-2.54a28,28,0,0,0,0-3.18c0-.13,0-0.24,0-0.37,1.55-.47,3.76-2.14,8.25-2.42,6.11-.41,20.53-0.22,27.73-3.91,4.11-2.1,18.42-4.91,20.33-6S516.93,177.14,515.93,176.45Zm-52.49-8.27c-5.2,6.12-7.82,8.25-8.73,8.21a22.63,22.63,0,0,0-4.69-5.68c1.87-2.08,10-5.87,13.73-8.69,0.55-.42,2.2-1.42,2.9-1.81a18.68,18.68,0,0,0,3.44,3.2C466.87,165.2,465.1,166.23,463.44,168.18Zm-74.87-13.27a16.09,16.09,0,0,0,13.15-3.66c4.54,7.25,4.66,13.81,9,18.34-5.53-5.35-10.36-5.25-18.27-9.52-1.37-.74-3.41-2.06-4-2.35l0,0a15.62,15.62,0,0,0,.15-2.11C388.62,155.38,388.57,155.13,388.57,154.91Zm33.72,8.1,0.12,0.25s-2.41-3.62-2.7-4.08c-0.82-1.26-1.9-2.53-3.1-4-1.88-2.28-3.54-4.13-4.82-5.52a23.88,23.88,0,0,0,10.64-6.23c0.41,0.3.83,0.53,1.25,0.79-0.21,1.24-.41,2.37-0.56,3.18a66.28,66.28,0,0,0-1,10.25A53.58,53.58,0,0,0,422.29,163Zm-6.92-4.52a66.66,66.66,0,0,1,4,6.09,34,34,0,0,0-6.1,3.13c-3.08-3.18-5.46-12.79-7-15.33L405,150.21a13.61,13.61,0,0,0,3.76.33C409,151,411.67,153.59,415.37,158.5Zm14.29,7.14a26.69,26.69,0,0,1,27,27,32.11,32.11,0,0,1-.26,4,27.72,27.72,0,0,0-4.8,1.8,27.08,27.08,0,0,0-25.87-.06c-4.57-3.62-14.86-3.91-22.62-2.11a28.24,28.24,0,0,1-.39-3.62A27,27,0,0,1,429.66,165.63Zm-3.88-10.31a49.79,49.79,0,0,1,1.4-9.06,20.05,20.05,0,0,0,3.61,1.27c1,2.09,2.66,10.43,1.93,15.46a38.19,38.19,0,0,0-6.54,0C425.68,162.1,425.61,158,425.78,155.33Zm23.91,0.54c-1.52,3.28-.73,7.52-4.63,11.36a52.49,52.49,0,0,0-6-2.92c0.62-5.21,5.46-11.71,8.64-14.4a13.61,13.61,0,0,0,3.62,2.79C451,153.34,450.35,154.45,449.69,155.87Zm4.13-1c0.13-.22.27-0.5,0.42-0.81a21.84,21.84,0,0,0,9.22.88,16.13,16.13,0,0,0,1.44,3.21l-0.05,0c-1.55.74-6.24,3.95-13.09,7.77a14.82,14.82,0,0,0-3.49,2.57,17.11,17.11,0,0,0,2.26-3.84C451.72,161.54,451.4,159.06,453.82,154.82Zm-16.59,4a30.93,30.93,0,0,0-1.31,3.93c0.58-4-.52-10-1.69-15.06a20.51,20.51,0,0,0,10.64-2.86,16,16,0,0,0,1,2.19C443.86,148.8,439.08,154,437.23,158.77Zm-55.34,4.14c-4,3.24-10.72,3.55-14.83,2a1.65,1.65,0,0,0-1.56.21c-2.75,2-5.75,2.17-8.24.48a7.1,7.1,0,0,1-3-7.42c1-3.83,5.54-6.42,12.55-7.12a1.65,1.65,0,0,0,1.46-1.33c1.26-6.41,5.42-7.37,9.45-8.28l1.74-.42a1.61,1.61,0,0,0,1.21-1.81c-0.15-1.21.9-5.35,4.3-8,4-3.06,9.89-3.13,17.16-.22a1.65,1.65,0,0,0,2.18-1c1.82-5.28,5.44-9,10.18-10.43a16.42,16.42,0,0,1,14.72,2.95,1.66,1.66,0,0,0,1.89.07,18.29,18.29,0,0,1,14.49-2.52c5.31,1.41,9.81,5.39,13,11.53a1.65,1.65,0,0,0,2,.8c5-1.71,9-1.75,11.71-.12a8.59,8.59,0,0,1,3.71,6.33,1.65,1.65,0,0,0,2.16,1.34c5.28-1.77,10.59-1.51,14.2.69a8.71,8.71,0,0,1,4.25,6.22,1.65,1.65,0,0,0,1.53,1.39c4.61,0.28,7.88,2.33,9,5.62a7.88,7.88,0,0,1-2.48,8.4c-3.49,2.94-9,2.75-15.15-.53a1.65,1.65,0,0,0-1.53,0c-4.78,2.46-9.31,2.63-13.46.49-4.86-2.51-7.67-7.42-8-10a1.65,1.65,0,0,0-.65-1.1,1.67,1.67,0,0,0-1.24-.3c-3.41.55-14.71,1.51-17.05-9.32a1.65,1.65,0,0,0-1-1.18,1.83,1.83,0,0,0-1.54.49c-7.33,4.88-14.56,4.53-21.5-1a1.65,1.65,0,0,0-2.21,0c-7.9,8-14.39,7.42-17.55,6.14a1.64,1.64,0,0,0-2,.62c-3.06,4.85-9.63,5.86-14.21,4.38a1.62,1.62,0,0,0-1.58.15,1.64,1.64,0,0,0-.57,1.5C386,157.1,384.82,160.56,381.89,162.92Zm3.81,1.51a14.83,14.83,0,0,0,2-4c0.42,0.26.76,0.47,0.95,0.6a48.62,48.62,0,0,0,4.29,2.56c6.85,3.22,11.15,4,15.82,7.79a35.38,35.38,0,0,0-4.51,5.89C394.42,174.54,386.76,165.81,385.7,164.43Zm5.09,21.83c-1-.33-6.54-2.36-9.87-2.13-6.82.5-15.5-1.65-19.8-3.35-1.07-.42-10.47-1.24-1.33-1.24,3,0,6.74-.84,12.75,0a84.88,84.88,0,0,0,18.92.36c4.54-.36,8,1.13,9.78,2.86a41,41,0,0,0-1.17,5.73C397.68,188.56,393.24,187.14,390.79,186.26ZM367.72,211c-4.14-3-7-8.44-9.84-7.48-1.21.39-1.34,2.54,0.32,2.59,1.14,0,3.18,3,4.36,4.36-0.3,1.6-4.42,3.29-8.74.7a7.36,7.36,0,0,1-2.36-9.88c1.46-2.55,5.6-4,10.56-3.85,9.61,0.22,12.31,11.14,14.57,13.18C376.6,211.75,371.42,213.69,367.72,211Zm13.95-.15c-3.63-1.61-6.5-10-7.57-11-0.42-.42,6.42-2.91,13.38-2.31,11.84,1,11.88,8.37,14.8,12C403.34,210.93,392.67,214,381.67,210.9Zm38.77,0.75c-1.11-.75-4.48-5-5.68-6.43s-3.42-2.77-4.36-1.45c-0.56.8,0,1.71,1,2.28s3.92,4.3,4.3,5c-0.22,1.14-5.53,3-8.63-.73-1.6-2-4.71-7.79-6.58-10.28,6.75-2.4,14.78-3.29,20.47-.61,5.46,2.57,6.41,8.48,8.58,11.36C430.1,212.72,423.76,213.89,420.44,211.64Zm14.88-.14c-3.62-1.61-6.5-10-7.57-11-0.43-.42,6.42-2.9,13.38-2.3,11.85,1,11.89,8.37,14.8,12C457,211.53,446.32,214.6,435.32,211.5Zm59.25-13.74c11.85,1,14.66,8.8,13.48,11.33-1,2.22-8.29,5.11-19.29,2-3.63-1.62-6.51-10-7.57-11C480.77,199.64,487.61,197.17,494.57,197.76Zm-20.11,1.86c5.47,2.57,6.74,8.45,8.58,11.35,0.54,1.94-6.1,2.54-9.11.87-1.16-.66-4.47-5-5.67-6.44s-3.08-2.39-4-1.06c-0.56.8,0.11,1.75,1.15,2.32,1.27,0.69,3.44,3.89,3.83,4.58-0.22,1.14-4.91,2.63-8.34-.85-1.76-1.77-4.92-7.94-6.13-10.35C461.49,197.64,468.77,196.94,474.45,199.62ZM506.24,179a75.24,75.24,0,0,0-12.73,3.63c-6.76,2.63-20.13,3.36-25.56,3.27-5.21-.09-7,2.22-8.8,1.9a26.88,26.88,0,0,0-1.76-6.95,25.68,25.68,0,0,1,10.75-2.32c5.75,0.22,16.23.66,21.65-.19,2.65-.41,12.33-0.45,13.8-0.46a26.41,26.41,0,0,1,3.32.3C509.21,178.49,507.39,178.71,506.24,179Z" transform="translate(-346.09 -111.59)"/><path class="cls-2" d="M367.48,155.93c-2.89,0-5.21.06-7.24,2.27s-1.65,3.65-2,4.07c-0.59.58-2.08-.45-2.06-1.61,0.13-5.54,6.82-7.7,10.78-7.26,1.51,0.18,1.9,2.53.56,2.53" transform="translate(-346.09 -111.59)"/><path class="cls-2" d="M379.23,146.64c-4.23.46-5.46,2.53-6.21,4.89-0.31.89-2.68,0.25-2.3-1.5,1.12-5.21,6.77-6.48,8.82-6,0.69,0.13.48,2.57-.3,2.64" transform="translate(-346.09 -111.59)"/><path class="cls-2" d="M397.63,135.32c-7.49-2.94-11.25,2.75-12.47,7.23-0.17.61-2.68,0.38-2.32-1.53,0.87-4.6,5.36-11.29,15.62-8.68,1.26,0.32.52,3.52-.84,3" transform="translate(-346.09 -111.59)"/><path class="cls-2" d="M425.68,127.94c-6.9-4.75-12.34-.94-15.21,2.5-1.38,1.63-2.82-1.07-2.23-2,2.48-3.93,11-10,18.55-3.32,0.85,0.74-.16,3.48-1.11,2.84" transform="translate(-346.09 -111.59)"/><path class="cls-2" d="M454,134.36c-0.57.41-.92-0.52-1.3-1.13-6.15-9.74-17.29-7.17-20.28-2.65-0.61.91-2.23-1.57-1.44-2.86,2.7-4.4,16.84-8.49,24.09,3.95,0.77,1.35-.26,2.14-1.07,2.7" transform="translate(-346.09 -111.59)"/><path class="cls-2" d="M471.36,140.48c-1.74-4.54-5-4.36-8.93-3.11-1.8.59-1.37-2.39-.77-2.6,3.75-1.33,10.14-1.92,11.84,4.35,0.49,1.75-1.66,2.59-2.14,1.36" transform="translate(-346.09 -111.59)"/><path class="cls-2" d="M491.66,150.24c-3.11-5.71-8.13-5.7-12.32-4.1-0.94.37-1.79-2-.3-2.87,4-2.31,12.31-1.9,14.88,5.48,0.44,1.25-1.22,3.38-2.26,1.49" transform="translate(-346.09 -111.59)"/><path class="cls-2" d="M504.56,159.23c-0.24,1-2.59,1-2.51,0,0.36-4.68-2-5.05-5-5-1.17,0-1.08-2.49-.19-2.68,4.16-1,9.15,2.08,7.73,7.66" transform="translate(-346.09 -111.59)"/><path class="cls-2" d="M423.76,183.41a3.14,3.14,0,1,1-6.27-.31l0-.35c-0.27-.41-1.68-0.87-3.77.4-1.05.65-2.23,0.2-.4-1.38a10.83,10.83,0,0,1,5.41-2.87h0.05a21.53,21.53,0,0,1,8,1c0.69,0.28,0,3.67-.18,3.63a6.42,6.42,0,0,0-2.83-.41v0.25" transform="translate(-346.09 -111.59)"/><path class="cls-2" d="M432.76,192.81c-0.55,1.6-6.22,2.11-7.26,0-0.41-.83-1-3-0.21-2.52,1.26,0.73,5.82.21,6.68,0s0.26-1.26.74-1.13,0.56,2.1.05,3.61" transform="translate(-346.09 -111.59)"/><path class="cls-2" d="M446.09,183.94c-1.42-1.17-3.29-1.69-4-1.17l0,0.24a3.14,3.14,0,1,1-6.25.55v-0.13c-1.13-.36-2.93.27-3.17,0.17s-0.91-3.26.09-3.67c2.71-1.1,11.43-1.64,14,3.25,0.3,0.59.11,1.38-.64,0.76" transform="translate(-346.09 -111.59)"/><path class="cls-2" d="M443.83,230.92h64.88v58.83H443.83V230.92Zm-93.23,0h64.93v58.83H350.6V230.92Zm64.92,164c-16.7-4.89-32.93-11.47-43.27-21.16a62.26,62.26,0,0,1-9.46-11.18h16.56v2.34h7.7v-2.34h18.6V331.13h-4v-5.72c-4,1-10.6-1.24-13.54-1.24a8,8,0,0,0-4.93,1.43,8,8,0,0,0-4.94-1.43c-2.94,0-9.52,2.21-13.54,1.24v5.72h-4v28.1c-6.32-11.08-9.37-24.34-10-40.6l-0.14-2.49h64.92v78.76Zm-47.47-38.78V329.06c2.31,0.4,6.27-1.19,10.31-1.32,2.17-.07,2.79,1.17,2.79,1.17v27.29s-2.34-1.63-7.59-.13C369.51,357.23,368.06,356.11,368.06,356.11Zm17.2,0.09V328.92s0.62-1.24,2.79-1.17c4,0.13,8,1.72,10.32,1.32v27.05s-1.47,1.12-5.52,0C387.6,354.57,385.26,356.21,385.26,356.21ZM440.44,396l-10.75,2.74-10.78-2.78V312.52H350.6V293.37h68.31V230.92h21.53v62.45h68.27v19.15H440.44V396ZM499,359.55V331.13h-4v-5.72c-4,1-10.61-1.24-13.55-1.24a8,8,0,0,0-4.93,1.43,7.93,7.93,0,0,0-4.93-1.43c-2.94,0-9.52,2.21-13.54,1.24v5.72h-4v31.42h18.6v2.34h7.7v-2.34h16.73a61.43,61.43,0,0,1-9.81,11.3c-11,10-27.18,16.36-43.54,21.1V316.13h64.88l0.11,2.65C507.86,336.56,505,349.21,499,359.55Zm-7.3-30.49v27.05s-1.46,1.12-5.51,0c-5.25-1.5-7.58.13-7.58,0.13V328.92s0.61-1.24,2.79-1.17C485.48,327.87,489.42,329.46,491.75,329.06Zm-17.2-.14v27.29s-2.34-1.63-7.59-.13c-4.05,1.16-5.51,0-5.51,0V329.06c2.32,0.4,6.27-1.19,10.31-1.32C473.92,327.67,474.54,328.92,474.54,328.92ZM346.63,227V314c0,28.78,7.19,48.7,22.56,62.71s38.14,21,60.49,26.24c23-5.42,45.06-12.19,60.48-26.24S512.7,342.8,512.7,314V227H346.63Z" transform="translate(-346.09 -111.59)"/><path class="cls-2" d="M401.68,246.33v-5.72c-4,1-10.6-1.24-13.54-1.24a8,8,0,0,0-4.93,1.42,8,8,0,0,0-4.94-1.42c-2.94,0-9.52,2.21-13.55,1.24v5.72h-4v31.41h18.6v2.33h7.71v-2.33h18.59V246.33h-4Zm-20.54,25.08s-2.33-1.64-7.58-.15c-4.05,1.15-5.52,0-5.52,0V244.25c2.32,0.41,6.27-1.19,10.31-1.31,2.17-.07,2.79,1.17,2.79,1.17v27.29Zm17.22-.11s-1.47,1.11-5.52,0c-5.25-1.49-7.59.15-7.59,0.15V244.11s0.62-1.24,2.79-1.17c4,0.12,8,1.71,10.32,1.31V271.3Z" transform="translate(-346.09 -111.59)"/><path class="cls-2" d="M495.08,246.33v-5.72c-4,1-10.61-1.24-13.55-1.24a8,8,0,0,0-4.93,1.42,8,8,0,0,0-4.94-1.42c-2.94,0-9.52,2.21-13.55,1.24v5.72h-4v31.41h18.59v2.33h7.71v-2.33H499V246.33h-4Zm-21,25.08s-2.34-1.64-7.57-.15c-4.06,1.15-5.52,0-5.52,0V244.25c2.32,0.41,6.28-1.19,10.32-1.31,2.17-.07,2.78,1.17,2.78,1.17v27.29Zm17.22-.11s-1.47,1.11-5.52,0c-5.25-1.49-7.59.15-7.59,0.15V244.11s0.62-1.24,2.79-1.17c4,0.12,8,1.71,10.31,1.31V271.3Z" transform="translate(-346.09 -111.59)"/><polygon class="cls-3" points="72.82 284.34 83.6 287.12 94.35 284.39 94.35 200.93 162.62 200.93 162.62 181.78 94.35 181.78 94.35 119.34 72.82 119.34 72.82 181.78 4.51 181.78 4.51 200.93 72.82 200.93 72.82 284.34"/><path class="cls-3" d="M387.48,197.56c-7-.6-13.8,1.88-13.38,2.31,1.07,1.07,3.94,9.42,7.57,11,11,3.09,21.67,0,20.6-1.3C399.36,205.92,399.32,198.56,387.48,197.56Z" transform="translate(-346.09 -111.59)"/><path class="cls-3" d="M441.13,198.16c-7-.6-13.81,1.88-13.38,2.3,1.07,1.07,4,9.42,7.57,11,11,3.1,21.68,0,20.61-1.31C453,206.52,453,199.16,441.13,198.16Z" transform="translate(-346.09 -111.59)"/><path class="cls-3" d="M488.76,211.1c11,3.1,18.25.21,19.29-2,1.18-2.53-1.64-10.33-13.48-11.33-7-.59-13.8,1.88-13.37,2.3C482.26,201.13,485.13,209.49,488.76,211.1Z" transform="translate(-346.09 -111.59)"/><path class="cls-1" d="M589.25,350.84a71.38,71.38,0,0,1-3.59,9.7,58.31,58.31,0,0,1-11.59,1.64c-15.69,0-22.56-10.84-22.56-20.85,0-13.29,10.21-22,24.26-22,5.1,0,9.39,1.39,11.15,1.7,0.5,3.53.88,6.11,1.26,9.51l-1.83.44c-1.7-6.68-5.48-9.39-12.29-9.39-10.52,0-16.13,8.88-16.13,18.46,0,11.78,6.93,19.85,16.51,19.85,6.43,0,9.83-3.46,13-9.7Z" transform="translate(-346.09 -111.59)"/><path class="cls-1" d="M607.77,333c7.81,0,13.61,6.3,13.61,14,0,10.14-7.43,14.93-13.67,14.93a13.63,13.63,0,0,1-13.8-13.86c0-10.4,8.06-15.12,13.8-15.12h0.06ZM607,335.09c-3.78,0-7.18,3.91-7.18,11,0,7.94,3.4,13.8,8.63,13.8,3.91,0,7.12-2.83,7.12-11.53,0-7.31-3-13.29-8.51-13.29H607Z" transform="translate(-346.09 -111.59)"/><path class="cls-1" d="M659.69,361.24V359.6c3.65-.38,4.35-0.69,4.35-5.1V344c0-4.47-1.58-7.31-5.54-7.31-2.27,0-4.6,1.32-7,3.28a14.74,14.74,0,0,1,.19,2.65v12.22c0,4,.57,4.35,4,4.73v1.64H642.23V359.6c3.91-.38,4.47-0.69,4.47-4.85V344c0-4.66-1.64-7.25-5.54-7.25-2.46,0-5,1.7-6.87,3.28v14.74c0,4.09.57,4.47,3.65,4.85v1.64H624.66V359.6c4.16-.38,4.73-0.76,4.73-4.85v-13c0-4-.19-4.35-3.84-4.92v-1.45a39.42,39.42,0,0,0,8.76-2.58v5.1c1.32-.88,2.65-2,4.6-3.15A9.4,9.4,0,0,1,644,333a7.75,7.75,0,0,1,7.06,5.17c1.83-1.39,3.65-2.58,5.17-3.53A8.91,8.91,0,0,1,661,333c4.85,0,8,3.46,8,9.64v12.1c0,4.22.44,4.47,4.1,4.85v1.64H659.69Z" transform="translate(-346.09 -111.59)"/><path class="cls-1" d="M689.8,334a6.49,6.49,0,0,1,3.09-1c7,0,11.15,5.73,11.15,11.84,0,9.51-7.5,15.63-15.69,17.14a10.43,10.43,0,0,1-4.35-1.13v8.25c0,4.79.44,5.1,5.29,5.54v1.7H674.43v-1.7c4-.38,4.6-0.76,4.6-4.91V341.27c0-4.1-.25-4.22-4.16-4.73V335a52.24,52.24,0,0,0,9.14-2.65v4.91ZM684,356.51a8.83,8.83,0,0,0,5.92,2.39c5.29,0,8.82-4.54,8.82-11.59,0-6.74-3.91-10.52-8.44-10.52-2,0-4.6,1.39-6.3,2.71v17Z" transform="translate(-346.09 -111.59)"/><path class="cls-1" d="M738.31,359.73a44.51,44.51,0,0,0-4.85,1c-1.64.44-3.21,0.88-4.41,1.26l-0.38-.38v-4.54a40.35,40.35,0,0,1-4.66,3.34,9,9,0,0,1-4.85,1.58c-4.22,0-7.81-2.58-7.81-9.39V340.26c0-3.34-.5-3.72-2.08-4l-1.76-.38v-1.51c1.32-.06,2.9-0.19,4.54-0.32s3.46-.5,4.47-0.69c-0.19,2-.19,4.91-0.19,9.07v8.5c0,5.61,2.71,7.12,5.54,7.12a9.79,9.79,0,0,0,6.8-3V340.26c0-3.34-.57-3.72-2.65-4l-2.27-.38v-1.51c1.7-.06,3.84-0.25,5.67-0.38s3.28-.44,4.22-0.63v21c0,3.15.5,3.53,3,3.72l1.7,0.06v1.64Z" transform="translate(-346.09 -111.59)"/><path class="cls-1" d="M752.86,361.18a6.14,6.14,0,0,1-2.65.82c-4,0-6.17-2.46-6.17-7.43V336.29h-4.35l-0.25-.69,1.76-1.83H744v-4.54l4.1-4.22,0.88,0.13v8.63h7.12a1.75,1.75,0,0,1-.38,2.52H749v16.13c0,5,2.08,6,3.72,6a8.52,8.52,0,0,0,3.84-1l0.57,1.57Z" transform="translate(-346.09 -111.59)"/><path class="cls-1" d="M782.09,355.95c-4,4.91-8.32,6-10.27,6-7.75,0-12.29-6.3-12.29-13.42a16.06,16.06,0,0,1,4.16-11c2.58-2.84,6-4.6,9.2-4.6H773a9.74,9.74,0,0,1,9.45,9.51c0,1.26-.25,1.76-1.45,2-1,.19-8.95.82-16.51,1.07,0.06,8.57,5,12.1,9.45,12.1a10.43,10.43,0,0,0,7.25-3.15Zm-10.71-20.6c-2.83,0-5.67,2.65-6.62,7.69,3.53,0,7.06-.06,10.71-0.19,1.13,0,1.51-.31,1.51-1.2,0.06-3.28-2.08-6.3-5.54-6.3h-0.06Z" transform="translate(-346.09 -111.59)"/><path class="cls-1" d="M795.45,339.69c1.89-3.15,4.6-6.68,7.62-6.68a3.25,3.25,0,0,1,1.64,6.24,1.36,1.36,0,0,1-1.64-.13,3.74,3.74,0,0,0-2.71-1.26c-1.64,0-3.65,1.83-5,5.36v11.47c0,4.16.32,4.54,5.17,4.92v1.64H786V359.6c3.91-.38,4.35-0.76,4.35-4.85v-13c0-4.16-.25-4.41-3.91-4.85v-1.45a38.36,38.36,0,0,0,8.88-2.52v6.8h0.13Z" transform="translate(-346.09 -111.59)"/><path class="cls-1" d="M845.53,329.8c-1.07-4-2.77-8.32-8.25-8.32a6.56,6.56,0,0,0-7,6.87c0,4.6,3,6.8,8,9.32s10.9,5.48,10.9,12.6c0,6.62-5.61,11.91-14,11.91a21.53,21.53,0,0,1-6.17-.95,27.8,27.8,0,0,1-3.15-1.32c-0.44-1.32-1.26-6.74-1.7-9.77l1.89-.44c0.94,3.84,3.78,10.21,10.33,10.21,4.79,0,7.56-3,7.56-7.56s-3.46-6.87-8.19-9.39c-4-2.21-10.4-5.29-10.4-12.41,0-6,4.85-11.21,13-11.21a26.15,26.15,0,0,1,7.94,1.45c0.25,2.27.57,4.73,1.07,8.69Z" transform="translate(-346.09 -111.59)"/><path class="cls-1" d="M878,355.57c-2.77,3.65-6.93,6.43-10.65,6.43-7.94,0-12.66-6.36-12.66-13.1A15,15,0,0,1,861,336.6a16.8,16.8,0,0,1,9.39-3.59h0.06a9,9,0,0,1,5.67,1.7,2.15,2.15,0,0,1,1,1.89c0,1.32-1.39,2.71-2.08,2.71a1.72,1.72,0,0,1-1.2-.69,9.17,9.17,0,0,0-6.36-2.58c-4.16,0-7.75,3.46-7.75,10.08,0,8.69,5.92,11.59,9.51,11.59,2.71,0,4.72-.76,7.62-3.46Z" transform="translate(-346.09 -111.59)"/><path class="cls-1" d="M881,361.24V359.6c4-.38,4.41-0.76,4.41-5v-13c0-3.84-.19-4.16-4-4.73v-1.51a38.84,38.84,0,0,0,8.95-2.46v21.67c0,4.28.44,4.66,4.47,5v1.64H881Zm6.55-41a3.19,3.19,0,0,1,3.15,3.28,3.23,3.23,0,0,1-3.21,3.21,3.25,3.25,0,0,1,0-6.49h0.06Z" transform="translate(-346.09 -111.59)"/><path class="cls-1" d="M920.69,355.95c-4,4.91-8.32,6-10.27,6-7.75,0-12.29-6.3-12.29-13.42a16.06,16.06,0,0,1,4.16-11c2.58-2.84,6-4.6,9.2-4.6h0.06a9.74,9.74,0,0,1,9.45,9.51c0,1.26-.25,1.76-1.45,2-1,.19-8.95.82-16.51,1.07,0.06,8.57,5,12.1,9.45,12.1a10.43,10.43,0,0,0,7.25-3.15ZM910,335.35c-2.83,0-5.67,2.65-6.62,7.69,3.53,0,7.06-.06,10.71-0.19,1.13,0,1.51-.31,1.51-1.2,0.06-3.28-2.08-6.3-5.54-6.3H910Z" transform="translate(-346.09 -111.59)"/><path class="cls-1" d="M942.36,361.24V359.6c3.72-.38,4.16-0.88,4.16-5.23V343.91c0-4.35-1.51-7.18-5.73-7.18-2.52,0-5,1.58-6.87,3.21v14.74c0,4.28.38,4.54,4.1,4.92v1.64H924.35V359.6c4.28-.44,4.6-0.76,4.6-4.92v-13c0-4-.38-4.22-3.78-4.85v-1.45a37.87,37.87,0,0,0,8.76-2.58v5c1.26-.95,2.65-1.89,4.22-3a9.66,9.66,0,0,1,5.23-1.89c5,0,8.13,3.46,8.13,9.51v12.16c0,4.28.38,4.54,4,4.92v1.64H942.36Z" transform="translate(-346.09 -111.59)"/><path class="cls-1" d="M982.37,355.57c-2.77,3.65-6.93,6.43-10.65,6.43-7.94,0-12.66-6.36-12.66-13.1a15,15,0,0,1,6.36-12.29,16.8,16.8,0,0,1,9.39-3.59h0.06a9,9,0,0,1,5.67,1.7,2.15,2.15,0,0,1,1,1.89c0,1.32-1.39,2.71-2.08,2.71a1.72,1.72,0,0,1-1.2-.69,9.17,9.17,0,0,0-6.36-2.58c-4.16,0-7.75,3.46-7.75,10.08,0,8.69,5.92,11.59,9.51,11.59,2.71,0,4.72-.76,7.62-3.46Z" transform="translate(-346.09 -111.59)"/><path class="cls-1" d="M1008.32,355.95c-4,4.91-8.32,6-10.27,6-7.75,0-12.29-6.3-12.29-13.42a16.06,16.06,0,0,1,4.16-11c2.58-2.84,6-4.6,9.2-4.6h0.06a9.74,9.74,0,0,1,9.45,9.51c0,1.26-.25,1.76-1.45,2-1,.19-8.95.82-16.51,1.07,0.06,8.57,5,12.1,9.45,12.1a10.43,10.43,0,0,0,7.25-3.15Zm-10.71-20.6c-2.83,0-5.67,2.65-6.62,7.69,3.53,0,7.06-.06,10.71-0.19,1.13,0,1.51-.31,1.51-1.2,0.06-3.28-2.08-6.3-5.54-6.3h-0.06Z" transform="translate(-346.09 -111.59)"/><path class="cls-1" d="M566.34,257.45v21.26c0,6.54,1.27,8.77,8.39,8.68,8.18,0,15.12-4.1,15.12-14.44,0-10.62-7.81-15.5-17.85-15.5h-5.66Zm0-2.84h6.14c9.36,0,14-4.39,14-12.38,0-5.85-2.43-12.38-14-12.38a15.49,15.49,0,0,0-5.36.59c-0.57.19-.87,0.57-0.87,2.53v21.64ZM575.9,227c7,0,11,1.17,14.24,3.43s5.06,5.84,5.06,10.72c0,8.58-8.1,12.78-12.77,13.95v0.19c8.87,1.27,16.87,6.54,16.87,16.39,0,6.91-3.41,11.8-9.06,15-5,2.73-11.22,3.71-18.62,3.71H549.18v-2.25c8.2-.58,9-1.27,9-11.89V241.16c-0.1-10.63-.69-11.31-8.4-11.89V227H575.9Z" transform="translate(-346.09 -111.59)"/><path class="cls-1" d="M633.24,259.69h5.66c4,0,7.11-.49,9.76-2.64,4.19-3.32,5.65-8.09,5.65-12.88,0-10.23-7.42-14.32-14.72-14.32-3.32,0-4.68.2-5.47,0.49-0.58.19-.87,0.68-0.87,2.63v26.72Zm0,16.58c0,10.62.78,11.31,8.78,11.89v2.25h-26v-2.25c8.2-.58,9-1.27,9-11.89V241.16c0-10.64-.78-11.31-8.59-11.89V227h24.78c6.23,0,11.8.88,15.4,3.32,3.89,2.44,6.44,6.82,6.44,12.48,0,8.1-5,13.85-12.89,17.06,1.77,2.93,5.76,9.67,8.68,14a88.78,88.78,0,0,0,8.2,10.73c2,2.44,3.79,4,7.32,4.88l-0.2,1.86h-1.37c-11.21-.3-14.63-3.72-18.33-9.07-3-4.41-7.13-11.61-9.86-16.2-1.55-2.53-3.11-3.5-6.14-3.5h-5.27v13.75Z" transform="translate(-346.09 -111.59)"/><path class="cls-1" d="M715.76,228.78c-11.51,0-21.27,9.46-21.27,27.78,0,18.82,9.85,32.09,24.09,32.09,11.7,0,21.27-9.06,21.27-27.2,0-21.07-10.15-32.67-24.09-32.67m33.54,29.05c0,20.29-14.14,34-32.76,34-18.43,0-31.5-14.07-31.5-32.47,0-16.39,11.5-33.85,33.25-33.85,16.88,0,31,13.07,31,32.28" transform="translate(-346.09 -111.59)"/><path class="cls-1" d="M782.63,229.27l-3,.39c-4.39.58-5,1.46-3.62,5.76L789.17,277h0.19L805,228h2.35l17.64,48.86h0.21c4-12.3,9.64-32.87,11.31-39.89,1.36-5.65.85-6.83-3.52-7.32l-2.83-.39V227h20.67v2.26c-6.43.78-7.11,1.17-10.33,10-0.87,2.44-8,24.87-16.19,51.69h-2.65L804.09,243.3l-0.2.2L788,291h-2.73L768.4,238.63c-2.64-8.1-4.1-8.77-9.66-9.36V227h23.9v2.26Z" transform="translate(-346.09 -111.59)"/><path class="cls-1" d="M921.79,291.1h-2.53l-42.34-51.39h-0.2v24.85a150.85,150.85,0,0,0,.79,18.53c0.5,3.41,3.12,4.77,9.56,5.06v2.25H863.67v-2.25c5.37-.2,7.89-1.66,8.39-5.06a154.59,154.59,0,0,0,.78-18.53V243.41c0-7-.1-8.6-1.86-10.83s-4.48-3-8.58-3.31V227h14.22l41.07,49.16h0.19V252.86a153.35,153.35,0,0,0-.77-18.53c-0.49-3.41-3.14-4.77-9.57-5.06V227H931v2.26c-5.36.2-7.9,1.66-8.38,5.06-0.4,3-.77,8.29-0.77,18.53V291.1Z" transform="translate(-346.09 -111.59)"/></svg>